<svg width="400" height="300" xmlns="http://www.w3.org/2000/svg">
  <rect width="400" height="300" fill="#4682B4"/>
  <rect x="0" y="200" width="400" height="100" fill="#1E90FF"/>
  <rect x="50" y="120" width="60" height="80" fill="#FF4500"/>
  <rect x="120" y="110" width="60" height="90" fill="#FFD700"/>
  <rect x="190" y="125" width="60" height="75" fill="#DC143C"/>
  <rect x="260" y="115" width="60" height="85" fill="#32CD32"/>
  <rect x="330" y="130" width="60" height="70" fill="#FF69B4"/>
  <polygon points="80,120 80,100 110,100 110,120" fill="#8B4513"/>
  <polygon points="150,110 150,90 180,90 180,110" fill="#8B4513"/>
  <polygon points="220,125 220,105 250,105 250,125" fill="#8B4513"/>
  <polygon points="290,115 290,95 320,95 320,115" fill="#8B4513"/>
  <polygon points="360,130 360,110 390,110 390,130" fill="#8B4513"/>
  <text x="200" y="280" text-anchor="middle" fill="white" font-family="Inter, sans-serif" font-size="20" font-weight="bold">Gdansk</text>
</svg>